<svg xmlns="http://www.w3.org/2000/svg" viewBox="0 0 64 64" aria-hidden="true">
  <path d="M32 52C27 44 16 38 14 27c-1.4-8.2 7.8-13.7 14.5-7.2C31.1 22.3 32 25 32 25s.9-2.7 3.5-5.2C42.2 13.3 51.4 18.8 50 27c-2 11-13 17-18 25Z" fill="none" stroke="#1f1f1f" stroke-width="3.2" stroke-linecap="round" stroke-linejoin="round"/>
  <path d="M37 48c3.5-6.8 11.8-9.7 12.9-17.7.8-6-3.7-10.8-9.2-9.7 5 3.3 6.3 11.4.9 15.6-3.1 2.4-7 4.7-9.6 15.8" fill="none" stroke="#1f1f1f" stroke-width="2.8" stroke-linecap="round" stroke-linejoin="round"/>
  <path d="M34.6 18.7c-.4-7.3 5.2-11.4 13.4-12.1-1.1 7.4-5.5 11.9-12.9 13.4" fill="none" stroke="#1f1f1f" stroke-width="2.8" stroke-linecap="round" stroke-linejoin="round"/>
  <path d="M36.2 19.1c3.1-3.3 6.2-5.6 9.6-7" fill="none" stroke="#1f1f1f" stroke-width="1.8" stroke-linecap="round"/>
  <path d="M20.5 22.5v.1M16 17.5v.1M24.5 13v.1" fill="none" stroke="#1f1f1f" stroke-width="4.2" stroke-linecap="round"/>
</svg>
